<?xml version="1.0" encoding="UTF-8" standalone="no" ?>
<!DOCTYPE svg PUBLIC "-//W3C//DTD SVG 1.1//EN" "http://www.w3.org/Graphics/SVG/1.1/DTD/svg11.dtd">
<svg xmlns="http://www.w3.org/2000/svg" xmlns:xlink="http://www.w3.org/1999/xlink" version="1.1" width="374.26901" height="256" viewBox="-0.0000027734375009913492 0 500.000005546875 342" xml:space="preserve">
<desc>Created with Fabric.js 4.6.0</desc>
<defs>
</defs>
<g transform="matrix(1.17 0 0 -1.17 170.09 89.11)" id="ypSPHKurzOOcjtA4XOkFb"  >
<path style="stroke: none; stroke-width: 1; stroke-dasharray: none; stroke-linecap: butt; stroke-dashoffset: 0; stroke-linejoin: miter; stroke-miterlimit: 4; fill: rgb(138,65,130); fill-rule: nonzero; opacity: 1;" vector-effect="non-scaling-stroke"  transform=" translate(-128.17, -179.4)" d="M 118.267273 149.665989 L 138.061818 149.665989 L 142.98 156.398644 L 142.98 209.126328 L 113.352727 209.126328 L 113.352727 156.39322 L 118.267273 149.665989" stroke-linecap="round" />
</g>
<g transform="matrix(1.17 0 0 -1.17 112.82 128.61)" id="qie1nQYvLJfbeUiTW-7YA"  >
<path style="stroke: none; stroke-width: 1; stroke-dasharray: none; stroke-linecap: butt; stroke-dashoffset: 0; stroke-linejoin: miter; stroke-miterlimit: 4; fill: rgb(138,65,130); fill-rule: nonzero; opacity: 1;" vector-effect="non-scaling-stroke"  transform=" translate(-79.37, -145.73)" d="M 105.508545 126.148701 L 111.623636 144.865989 L 106.705273 151.596836 L 56.2712727 167.889718 L 47.1172727 139.87435 L 97.5567273 123.577853 L 105.508545 126.148701" stroke-linecap="round" />
</g>
<g transform="matrix(1.17 0 0 -1.17 132.92 197.38)" id="tJ00Lh72GUfGbFNYBz9bl"  >
<path style="stroke: none; stroke-width: 1; stroke-dasharray: none; stroke-linecap: butt; stroke-dashoffset: 0; stroke-linejoin: miter; stroke-miterlimit: 4; fill: rgb(138,65,130); fill-rule: nonzero; opacity: 1;" vector-effect="non-scaling-stroke"  transform=" translate(-96.49, -87.11)" d="M 124.06 106.813107 L 108.047636 118.383729 L 100.088727 115.811073 L 68.9203636 73.1516384 L 92.8878182 55.8376497 L 124.06 98.4985311 L 124.06 106.813107" stroke-linecap="round" />
</g>
<g transform="matrix(1.17 0 0 -1.17 207.26 197.38)" id="978f0fZecR0H5bPen_s2E"  >
<path style="stroke: none; stroke-width: 1; stroke-dasharray: none; stroke-linecap: butt; stroke-dashoffset: 0; stroke-linejoin: miter; stroke-miterlimit: 4; fill: rgb(138,65,130); fill-rule: nonzero; opacity: 1;" vector-effect="non-scaling-stroke"  transform=" translate(-159.84, -87.11)" d="M 148.285455 118.385537 L 132.269091 106.816723 L 132.272727 98.4967232 L 163.441818 55.8376497 L 187.410909 73.1516384 L 156.236364 115.814689 L 148.285455 118.385537" stroke-linecap="round" />
</g>
<g transform="matrix(1.17 0 0 -1.17 227.34 128.61)" id="ndMd4qcnwjgMsBZcS9JvW"  >
<path style="stroke: none; stroke-width: 1; stroke-dasharray: none; stroke-linecap: butt; stroke-dashoffset: 0; stroke-linejoin: miter; stroke-miterlimit: 4; fill: rgb(138,65,130); fill-rule: nonzero; opacity: 1;" vector-effect="non-scaling-stroke"  transform=" translate(-176.96, -145.74)" d="M 144.701818 144.869605 L 150.82 126.150508 L 158.778182 123.581469 L 209.212727 139.87435 L 200.056364 167.891525 L 149.62 151.595028 L 144.701818 144.869605" stroke-linecap="round" />
</g>
<g transform="matrix(1.17 0 0 -1.17 170.09 149.61)" id="2fy6QRoSNv-Xact4EpCzU"  >
<path style="stroke: none; stroke-width: 1; stroke-dasharray: none; stroke-linecap: butt; stroke-dashoffset: 0; stroke-linejoin: miter; stroke-miterlimit: 4; fill: rgb(138,65,130); fill-rule: nonzero; opacity: 1;" vector-effect="non-scaling-stroke"  transform=" translate(-128.16, -127.83)" d="M 128.170909 254.893559 C 57.7094545 254.893559 0.383454545 197.901017 0.383454545 127.848136 C 0.383454545 57.7697627 57.7094545 0.761310734 128.170909 0.761310734 C 198.625455 0.761310734 255.945455 57.7697627 255.945455 127.848136 C 255.945455 197.901017 198.625455 254.893559 128.170909 254.893559 L 128.170909 254.893559 L 128.170909 254.893559 Z M 128.170909 229.168814 C 184.44 229.168814 230.070909 183.811977 230.070909 127.848136 C 230.070909 71.8662147 184.44 26.4894915 128.170909 26.4894915 C 71.8827273 26.4894915 26.2578182 71.8662147 26.2578182 127.848136 C 26.2578182 183.811977 71.8827273 229.168814 128.170909 229.168814 L 128.170909 229.168814 Z" stroke-linecap="round" />
</g>
<g transform="matrix(1.17 0 0 -1.17 239.9 170.91)" id="kpJk0m9NMTHvbOfvB_AJW"  >
<path style="stroke: none; stroke-width: 1; stroke-dasharray: none; stroke-linecap: butt; stroke-dashoffset: 0; stroke-linejoin: miter; stroke-miterlimit: 4; fill: rgb(138,65,130); fill-rule: nonzero; opacity: 1;" vector-effect="non-scaling-stroke"  transform=" translate(-187.66, -109.68)" d="M 205.565455 99.6085876 L 167.227273 111.996384 L 169.761818 119.761356 L 208.1 107.373559 L 205.565455 99.6085876" stroke-linecap="round" />
</g>
<g transform="matrix(1.17 0 0 -1.17 213.55 89.08)" id="ZGqp4XjiMg1uQr991tMVB"  >
<path style="stroke: none; stroke-width: 1; stroke-dasharray: none; stroke-linecap: butt; stroke-dashoffset: 0; stroke-linejoin: miter; stroke-miterlimit: 4; fill: rgb(138,65,130); fill-rule: nonzero; opacity: 1;" vector-effect="non-scaling-stroke"  transform=" translate(-165.19, -179.42)" d="M 156.669091 160.809944 L 150.025455 165.608136 L 173.718182 198.03661 L 180.361818 193.238418 L 156.669091 160.809944" stroke-linecap="round" />
</g>
<g transform="matrix(1.17 0 0 -1.17 127.12 88.74)" id="I7EfwjVL-g1dKFiBixl4w"  >
<path style="stroke: none; stroke-width: 1; stroke-dasharray: none; stroke-linecap: butt; stroke-dashoffset: 0; stroke-linejoin: miter; stroke-miterlimit: 4; fill: rgb(138,65,130); fill-rule: nonzero; opacity: 1;" vector-effect="non-scaling-stroke"  transform=" translate(-91.55, -179.72)" d="M 100.071818 161.104633 L 76.3821818 193.534915 L 83.0263636 198.333107 L 106.716 165.904633 L 100.071818 161.104633" stroke-linecap="round" />
</g>
<g transform="matrix(1.17 0 0 -1.17 100.07 170.33)" id="pQ6yj9ZjvtktaW5vkev15"  >
<path style="stroke: none; stroke-width: 1; stroke-dasharray: none; stroke-linecap: butt; stroke-dashoffset: 0; stroke-linejoin: miter; stroke-miterlimit: 4; fill: rgb(138,65,130); fill-rule: nonzero; opacity: 1;" vector-effect="non-scaling-stroke"  transform=" translate(-68.51, -110.17)" d="M 50.608 100.093107 L 48.0718182 107.858079 L 86.4061818 120.240452 L 88.9425455 112.47548 L 50.608 100.093107" stroke-linecap="round" />
</g>
<g transform="matrix(1.17 0 0 -1.17 169.8 221.14)" id="E2DFh-qe_hTNESnriR9ns"  >
<path style="stroke: none; stroke-width: 1; stroke-dasharray: none; stroke-linecap: butt; stroke-dashoffset: 0; stroke-linejoin: miter; stroke-miterlimit: 4; fill: rgb(138,65,130); fill-rule: nonzero; opacity: 1;" vector-effect="non-scaling-stroke"  transform=" translate(-127.91, -66.88)" d="M 123.807273 46.8411299 L 132.018218 46.8411299 L 132.018218 86.9259209 L 123.807273 86.9259209 L 123.807273 46.8411299 L 123.807273 46.8411299 Z" stroke-linecap="round" />
</g>
<g transform="matrix(1.17 0 0 1.17 420.2 281.77)" id="wbwhZNF_RU3fParema2bZ"  >
<path style="stroke: none; stroke-width: 1; stroke-dasharray: none; stroke-linecap: butt; stroke-dashoffset: 0; stroke-linejoin: miter; stroke-miterlimit: 4; fill: rgb(66,159,135); fill-rule: nonzero; opacity: 1;" vector-effect="non-scaling-stroke"  transform=" translate(-205.21, -145.21)" d="M 154.565149 138.601931 L 193.810636 197.149425 L 255.853854 197.149425 L 185.543111 93.2663908 L 154.565149 138.601931" stroke-linecap="round" />
</g>
<g transform="matrix(1.17 0 0 1.17 257.83 278.91)" id="xaPYhR2jbnEUnKgnhrbOO"  >
<path style="stroke: none; stroke-width: 1; stroke-dasharray: none; stroke-linecap: butt; stroke-dashoffset: 0; stroke-linejoin: miter; stroke-miterlimit: 4; fill: rgb(66,159,135); fill-rule: nonzero; opacity: 1;" vector-effect="non-scaling-stroke"  transform=" translate(-66.83, -142.76)" d="M 29.4919847 169.993808 L 58.2277395 142.923525 L 104.170421 197.149425 L 74.6784368 88.3749272 L 49.7777778 129.336889 L 29.4919847 169.993808" stroke-linecap="round" />
</g>
<g transform="matrix(1.17 0 0 1.17 223.22 247.04)" id="G3IkDTnMOz6w5OMQIq6Ko"  >
<path style="stroke: none; stroke-width: 1; stroke-dasharray: none; stroke-linecap: butt; stroke-dashoffset: 0; stroke-linejoin: miter; stroke-miterlimit: 4; fill: rgb(86,197,168); fill-rule: nonzero; opacity: 1;" vector-effect="non-scaling-stroke"  transform=" translate(-37.34, -115.61)" d="M 29.4919847 169.993808 L 74.6784368 88.3749272 L 45.9495479 115.457962 L 0 61.2300996 L 29.4919847 169.993808" stroke-linecap="round" />
</g>
<g transform="matrix(1.17 0 0 1.17 380.6 227.41)" id="bkk6_Z3VH_SX42cQxrrgl"  >
<path style="stroke: none; stroke-width: 1; stroke-dasharray: none; stroke-linecap: butt; stroke-dashoffset: 0; stroke-linejoin: miter; stroke-miterlimit: 4; fill: rgb(86,197,168); fill-rule: nonzero; opacity: 1;" vector-effect="non-scaling-stroke"  transform=" translate(-171.46, -98.88)" d="M 249.938391 0.603218391 L 187.895172 0.603218391 L 149.896337 56.7466667 L 149.896337 0.603218391 L 92.9848889 0.603218391 L 92.9848889 58.8319387 L 123.329226 170.665686 L 130.400123 197.149425 L 149.896337 197.149425 L 149.896337 148.011157 L 249.938391 0.603218391" stroke-linecap="round" />
</g>
</svg>